PathFileType	4	(X/Y/Z)	/Users/itak/Documents/Research/Walk-IL/dataset/trc/00343_00011.trc
DataRate	CameraRate	NumFrames	NumMarkers	Units	OrigDataRate	OrigDataStartFrame	OrigNumFrames
100.000000	100.000000	4	54	mm	100.000000	289	772
Frame#	Time	RPSI			LPSI			L3			STRN			T10			C7			CLAV			RBAK			LBAK			LSHO			LUPA			LAEL			LAOL			LWTS			LWPS			LFRA			LIFD			LHPS			LHTS			RSHO			RUPA			RAEL			RAOL			RWTS			RWPS			RFRA			RIFD			RHTS			RHPS			RBHD			LFHD			RFHD			LBHD			LHIP			RHIP			RASI			LASI			LKNE			LTHI			LANK			LTIP			LTOE			LMT1			LMT5			LHEE			RKNE			RTHI			RTIP			RTOE			RMT1			RMT5			RHEE			RANK			*53			
		X1	Y1	Z1	X2	Y2	Z2	X3	Y3	Z3	X4	Y4	Z4	X5	Y5	Z5	X6	Y6	Z6	X7	Y7	Z7	X8	Y8	Z8	X9	Y9	Z9	X10	Y10	Z10	X11	Y11	Z11	X12	Y12	Z12	X13	Y13	Z13	X14	Y14	Z14	X15	Y15	Z15	X16	Y16	Z16	X17	Y17	Z17	X18	Y18	Z18	X19	Y19	Z19	X20	Y20	Z20	X21	Y21	Z21	X22	Y22	Z22	X23	Y23	Z23	X24	Y24	Z24	X25	Y25	Z25	X26	Y26	Z26	X27	Y27	Z27	X28	Y28	Z28	X29	Y29	Z29	X30	Y30	Z30	X31	Y31	Z31	X32	Y32	Z32	X33	Y33	Z33	X34	Y34	Z34	X35	Y35	Z35	X36	Y36	Z36	X37	Y37	Z37	X38	Y38	Z38	X39	Y39	Z39	X40	Y40	Z40	X41	Y41	Z41	X42	Y42	Z42	X43	Y43	Z43	X44	Y44	Z44	X45	Y45	Z45	X46	Y46	Z46	X47	Y47	Z47	X48	Y48	Z48	X49	Y49	Z49	X50	Y50	Z50	X51	Y51	Z51	X52	Y52	Z52	X53	Y53	Z53	X54	Y54	Z54	

290	2.89	811.1636962890625	963.0059204101562	273.6786193847656	682.9009399414062	953.5799560546875	289.8495178222656	754.09375	1019.726867675781	282.93505859375	689.0377197265625	1200.859008789062	55.57256317138672	748.0778198242188	1139.725463867188	292.6794738769531	706.6640014648438	1384.896484375	248.6864318847656	683.32080078125	1326.075439453125	97.90081024169922	794.7595825195312	1251.513916015625	282.7539672851562	614.8929443359375	1343.571899414062	281.9732360839844	540.562255859375	1355.309814453125	211.9128723144531	486.7130126953125	1244.638916015625	267.0480651855469	467.6942443847656	1046.637573242188	305.8674621582031	545.2268676757812	1040.963500976562	340.3534851074219	458.0724792480469	786.0524291992188	263.8914184570312	425.5037231445312	792.7378540039062	324.6048278808594	451.3095092773438	943.62646484375	322.2582702636719	452.968505859375	629.9959106445312	300.4215087890625	427.7867126464844	725.5729370117188	343.4337768554688	433.6399536132812	710.6419067382812	281.0750122070312	852.4449462890625	1385.120971679688	162.3805999755859	923.6878662109375	1331.45947265625	156.1545562744141	1026.641479492188	1100.218872070312	67.43824005126953	955.7662963867188	1052.640502929688	111.1168518066406	1013.978210449219	920.1636962890625	-114.3307952880859	1088.433227539062	914.84619140625	-94.91645812988281	1047.378295898438	1049.518920898438	18.95574760437012	1061.52197265625	774.7537231445312	-195.3314361572266	1047.9326171875	846.7919921875	-183.5030517578125	1103.432983398438	845.2569580078125	-141.9496459960938	756.6126708984375	1598.746704101562	150.8604431152344	585.2643432617188	1575.547119140625	34.31072998046875	681.9005737304688	1586.324951171875	6.903693199157715	629.2158203125	1582.568725585938	215.8775024414062	571.0306396484375	899.4959106445312	210.4726867675781	913.5894165039062	913.55224609375	182.7863616943359	861.703369140625	938.8950805664062	82.88458251953125	622.3744506835938	929.3798828125	87.46766662597656	571.6964111328125	477.860107421875	-10.9531421661377	559.3798217773438	606.9766845703125	45.67665100097656	663.5499877929688	67.12461853027344	112.8183822631836	606.288330078125	257.814697265625	49.36908721923828	665.7584838867188	45.04256057739258	-97.42124176025391	724.1038818359375	40.3162727355957	-42.1934814453125	618.609375	46.69249725341797	-0.8100817799568176	736.9855346679688	75.87322235107422	127.659309387207	907.8417358398438	449.4237060546875	173.5421447753906	918.72412109375	706.4486083984375	119.5615692138672	905.2054443359375	329.2124938964844	186.0523376464844	876.8397216796875	34.09043121337891	114.4881973266602	825.88671875	31.08263397216797	162.0299530029297	931.53271484375	27.44887161254883	217.8395690917969	844.2892456054688	54.74587249755859	352.9502258300781	899.7861328125	47.16596221923828	311.27001953125	nan	nan	nan	
291	2.9	811.0009155273438	962.5635375976562	265.7090759277344	682.9169311523438	953.4541625976562	282.5411071777344	754.5286865234375	1019.070983886719	275.4927978515625	687.9475708007812	1199.893188476562	48.22063827514648	749.1431274414062	1139.147827148438	285.3530883789062	707.2604370117188	1384.19091796875	240.94580078125	682.603515625	1325.13232421875	90.47480010986328	795.731689453125	1250.84912109375	274.4713439941406	615.9140014648438	1342.953857421875	275.1295166015625	540.87841796875	1354.444458007812	205.7630462646484	487.90576171875	1243.737182617188	261.6304321289062	470.4156799316406	1045.915893554688	301.5132446289062	548.6644287109375	1040.956298828125	335.0537414550781	460.5036010742188	785.0147705078125	261.1308898925781	429.145263671875	792.0000610351562	322.415283203125	454.5355224609375	942.96044921875	318.6945495605469	456.6141662597656	629.1377563476562	298.7586364746094	432.2027893066406	724.965576171875	341.7579956054688	436.6879272460938	709.62890625	279.2476806640625	852.2991943359375	1384.248901367188	153.4074401855469	923.4406127929688	1330.519287109375	146.3984680175781	1025.445556640625	1099.739624023438	55.42854309082031	954.4269409179688	1051.837158203125	98.58512878417969	1011.406921386719	922.4793090820312	-128.9145202636719	1085.708618164062	916.2484741210938	-109.5889358520508	1045.800537109375	1049.53173828125	6.192240238189697	1057.770385742188	778.4054565429688	-212.6800079345703	1044.555419921875	850.1759643554688	-199.3721618652344	1100.223266601562	847.4986572265625	-157.9277496337891	756.4935913085938	1597.865600585938	142.2666473388672	583.7816772460938	1574.621826171875	27.70002174377441	680.14208984375	1585.343627929688	-0.7926536202430725	629.8811645507812	1581.7890625	208.8163757324219	570.6522216796875	899.2523803710938	203.6117553710938	913.3253173828125	913.0355834960938	175.0842895507812	860.9252319335938	937.7847290039062	74.92172241210938	621.5930786132812	928.7243041992188	80.33226013183594	571.1890869140625	476.0625	-15.26760387420654	558.1083984375	605.9132080078125	40.89920043945312	661.3652954101562	59.14068603515625	83.54338836669922	604.348876953125	253.3456115722656	32.61987686157227	656.1810302734375	48.07589721679688	-127.4999847412109	716.2947387695312	39.72447204589844	-74.55044555664062	612.4942016601562	45.09589767456055	-29.3866138458252	735.305419921875	66.36954498291016	96.37202453613281	906.9790649414062	448.85595703125	170.1767425537109	917.6316528320312	705.361572265625	113.1433563232422	904.615478515625	328.7256164550781	183.8646087646484	876.8626708984375	34.12576293945312	114.4748001098633	825.8109130859375	30.98918342590332	161.9781036376953	931.3692626953125	27.54153060913086	217.7537689208984	844.0090942382812	55.26554107666016	352.8105163574219	899.553955078125	47.70315933227539	311.132080078125	nan	nan	nan	
292	2.91	810.5116577148438	961.9822387695312	257.6652221679688	682.6398315429688	953.180908203125	275.1123657226562	754.6688232421875	1018.278137207031	267.9954528808594	686.7306518554688	1198.83154296875	40.84304809570312	749.954345703125	1138.42724609375	278.0166625976562	707.6441040039062	1383.334594726562	233.1948394775391	681.739013671875	1324.08837890625	83.04763793945312	796.4684448242188	1250.052490234375	266.2262268066406	616.6967163085938	1342.19189453125	268.2325134277344	541.0090942382812	1353.441162109375	199.5476684570312	488.9359436035156	1242.68017578125	256.0776062011719	473.0407409667969	1044.998291015625	296.8840026855469	551.975341796875	1040.812255859375	329.6349182128906	463.0382995605469	783.7896728515625	257.9932861328125	432.8812866210938	791.0410766601562	319.8409118652344	457.7254943847656	942.0985107421875	314.7953796386719	460.5785522460938	628.078369140625	296.7076416015625	436.6860961914062	724.1366577148438	339.604248046875	439.9364318847656	708.4027099609375	277.0346374511719	851.962890625	1383.253662109375	144.5103454589844	922.9988403320312	1329.451293945312	136.7289276123047	1023.945983886719	1099.052978515625	43.66084671020508	952.837890625	1051.063354492188	86.49453735351562	1008.452880859375	924.4576416015625	-143.0596313476562	1082.554931640625	917.220458984375	-123.7987899780273	1043.904663085938	1049.289794921875	-6.273822784423828	1053.56005859375	781.6629638671875	-229.3940277099609	1040.725463867188	853.0986328125	-214.6613922119141	1096.577758789062	849.3665161132812	-173.3881988525391	756.2070922851562	1596.84423828125	133.7432556152344	582.2042846679688	1573.606323242188	21.08732795715332	678.297119140625	1584.26513671875	-8.43366527557373	630.36962890625	1580.8720703125	201.7459106445312	570.0501098632812	898.7944946289062	196.5326080322266	912.79541015625	912.3299560546875	167.3065643310547	860.025634765625	936.6171264648438	66.98016357421875	620.670654296875	927.9010620117188	73.03020477294922	570.90283203125	473.8843383789062	-19.13515281677246	556.9201049804688	604.328125	36.42202758789062	658.4390869140625	52.19165802001953	54.40177154541016	602.1657104492188	249.2282867431641	16.23312377929688	645.9636840820312	52.01982116699219	-156.5780944824219	707.6712036132812	40.20627212524414	-106.1324234008789	605.6904296875	44.35414505004883	-57.34333419799805	732.7990112304688	58.0098876953125	65.08910369873047	906.0201416015625	448.2775268554688	166.7238159179688	916.458740234375	704.2501220703125	106.7765045166016	903.9752197265625	328.2423400878906	181.6208953857422	876.8851928710938	34.14287567138672	114.4479064941406	825.7301025390625	30.90034484863281	161.9093933105469	931.1857299804688	27.65674209594727	217.6548156738281	843.67822265625	55.82865905761719	352.6638793945312	899.26513671875	48.30175399780273	310.9952392578125	nan	nan	nan	
293	2.92	809.6998901367188	961.2527465820312	249.5637817382812	682.0507202148438	952.7149047851562	267.5583801269531	754.494140625	1017.348693847656	260.4276733398438	685.3878784179688	1197.668090820312	33.44033813476562	750.48681640625	1137.548461914062	270.6676940917969	707.8114624023438	1382.321533203125	225.439697265625	680.7294311523438	1322.943725585938	75.61196899414062	796.967529296875	1249.122314453125	258.0425109863281	617.226318359375	1341.277587890625	261.2873840332031	540.9448852539062	1352.294921875	193.2638702392578	489.7946166992188	1241.464233398438	250.3953857421875	475.5364990234375	1043.88330078125	291.9903564453125	555.1019897460938	1040.460693359375	324.0806579589844	465.66943359375	782.37841796875	254.467529296875	436.6589965820312	789.8573608398438	316.8544616699219	460.8414916992188	941.0397338867188	310.561767578125	464.833740234375	626.8269653320312	294.2408447265625	441.2105407714844	723.0778198242188	336.9580993652344	443.3631591796875	706.968017578125	274.41259765625	851.4432373046875	1382.133056640625	135.6941528320312	922.36376953125	1328.248779296875	127.1562728881836	1022.155212402344	1098.163208007812	32.12331390380859	950.9806518554688	1050.256225585938	74.7723388671875	1005.108337402344	926.0841064453125	-156.7572631835938	1078.991943359375	917.7761840820312	-137.5664215087891	1041.702392578125	1048.794067382812	-18.44955444335938	1048.906005859375	784.4880981445312	-245.4635772705078	1036.472778320312	855.5349731445312	-229.3797149658203	1092.501342773438	850.8421630859375	-188.333251953125	755.7501220703125	1595.6806640625	125.2870025634766	580.526123046875	1572.49853515625	14.470534324646	676.3511352539062	1583.08642578125	-16.0225944519043	630.6669311523438	1579.815063476562	194.6603851318359	569.22509765625	898.079345703125	189.2471923828125	912.0012817382812	911.450927734375	159.4309997558594	858.9833984375	935.3829956054688	59.05426788330078	619.5877685546875	926.887939453125	65.56078338623047	570.8096923828125	471.3839721679688	-22.75477981567383	555.8306884765625	602.2117919921875	32.17476272583008	654.821533203125	46.37636184692383	25.63958740234375	599.7948608398438	245.5609436035156	0.2835474610328674	635.1718139648438	56.93734359741211	-184.4748840332031	698.31103515625	41.86684036254883	-136.7471008300781	598.2548217773438	44.55917739868164	-84.47179412841797	729.5271606445312	50.91450119018555	34.06492614746094	905.013916015625	447.7047424316406	163.1977691650391	915.2286376953125	703.1121215820312	100.4570999145508	903.3118896484375	327.7821044921875	179.3234558105469	876.9080810546875	34.14067459106445	114.4064102172852	825.6480102539062	30.82134628295898	161.8246002197266	930.994384765625	27.79275321960449	217.5476684570312	843.3175048828125	56.4577751159668	352.4956970214844	898.9271850585938	48.9536018371582	310.8527526855469	nan	nan	nan	
